<mxfile host="app.diagrams.net" modified="2022-11-28T12:21:06.507Z" agent="5.0 (Windows NT 10.0; Win64; x64) AppleWebKit/537.36 (KHTML, like Gecko) Chrome/107.0.0.0 Safari/537.36" etag="bBBSm3H3-wzn0RQ7bJ2r" version="20.6.0" type="github" pages="4">
  <diagram id="C5RBs43oDa-KdzZeNtuy" name="User Flow">
    <mxGraphModel dx="868" dy="474" grid="1" gridSize="10" guides="1" tooltips="1" connect="1" arrows="1" fold="1" page="1" pageScale="1" pageWidth="827" pageHeight="1169" math="0" shadow="0">
      <root>
        <mxCell id="WIyWlLk6GJQsqaUBKTNV-0" />
        <mxCell id="WIyWlLk6GJQsqaUBKTNV-1" parent="WIyWlLk6GJQsqaUBKTNV-0" />
        <mxCell id="vwuv4UBcXKUOzSzQAbg--1" value="D-Care" style="swimlane;" parent="WIyWlLk6GJQsqaUBKTNV-1" vertex="1">
          <mxGeometry x="150" y="140" width="1750" height="520" as="geometry" />
        </mxCell>
        <mxCell id="vwuv4UBcXKUOzSzQAbg--2" value="Start" style="rounded=1;whiteSpace=wrap;html=1;fillColor=#d5e8d4;strokeColor=#82b366;" parent="vwuv4UBcXKUOzSzQAbg--1" vertex="1">
          <mxGeometry x="230" y="40" width="100" height="40" as="geometry" />
        </mxCell>
        <mxCell id="vwuv4UBcXKUOzSzQAbg--5" value="Donasi" style="whiteSpace=wrap;html=1;fillColor=#dae8fc;strokeColor=#6c8ebf;rounded=1;" parent="vwuv4UBcXKUOzSzQAbg--1" vertex="1">
          <mxGeometry x="20" y="150" width="120" height="60" as="geometry" />
        </mxCell>
        <UserObject label="Landing Page" link="data:page/id,luoAxybNkDgx6P6GwI3_" id="vwuv4UBcXKUOzSzQAbg--3">
          <mxCell style="whiteSpace=wrap;html=1;fillColor=#dae8fc;strokeColor=#6c8ebf;rounded=1;" parent="vwuv4UBcXKUOzSzQAbg--1" vertex="1">
            <mxGeometry x="220" y="150" width="120" height="60" as="geometry" />
          </mxCell>
        </UserObject>
        <mxCell id="vwuv4UBcXKUOzSzQAbg--4" value="" style="edgeStyle=orthogonalEdgeStyle;rounded=0;orthogonalLoop=1;jettySize=auto;html=1;" parent="vwuv4UBcXKUOzSzQAbg--1" source="vwuv4UBcXKUOzSzQAbg--2" target="vwuv4UBcXKUOzSzQAbg--3" edge="1">
          <mxGeometry relative="1" as="geometry" />
        </mxCell>
        <mxCell id="vwuv4UBcXKUOzSzQAbg--6" value="" style="edgeStyle=orthogonalEdgeStyle;rounded=0;orthogonalLoop=1;jettySize=auto;html=1;" parent="vwuv4UBcXKUOzSzQAbg--1" source="vwuv4UBcXKUOzSzQAbg--3" target="vwuv4UBcXKUOzSzQAbg--5" edge="1">
          <mxGeometry relative="1" as="geometry" />
        </mxCell>
        <mxCell id="MDb2n4QmbUKZTfVuzszc-1" value="" style="edgeStyle=orthogonalEdgeStyle;rounded=0;orthogonalLoop=1;jettySize=auto;html=1;fontSize=10;fontColor=#000000;" parent="vwuv4UBcXKUOzSzQAbg--1" source="vwuv4UBcXKUOzSzQAbg--7" target="MDb2n4QmbUKZTfVuzszc-0" edge="1">
          <mxGeometry relative="1" as="geometry" />
        </mxCell>
        <mxCell id="vwuv4UBcXKUOzSzQAbg--7" value="List Artikel" style="whiteSpace=wrap;html=1;fillColor=#dae8fc;strokeColor=#6c8ebf;rounded=1;" parent="vwuv4UBcXKUOzSzQAbg--1" vertex="1">
          <mxGeometry x="220" y="290" width="120" height="60" as="geometry" />
        </mxCell>
        <mxCell id="vwuv4UBcXKUOzSzQAbg--8" value="" style="edgeStyle=orthogonalEdgeStyle;rounded=0;orthogonalLoop=1;jettySize=auto;html=1;" parent="vwuv4UBcXKUOzSzQAbg--1" source="vwuv4UBcXKUOzSzQAbg--3" target="vwuv4UBcXKUOzSzQAbg--7" edge="1">
          <mxGeometry relative="1" as="geometry" />
        </mxCell>
        <mxCell id="vwuv4UBcXKUOzSzQAbg--22" value="" style="edgeStyle=orthogonalEdgeStyle;rounded=0;orthogonalLoop=1;jettySize=auto;html=1;" parent="vwuv4UBcXKUOzSzQAbg--1" source="vwuv4UBcXKUOzSzQAbg--13" target="vwuv4UBcXKUOzSzQAbg--21" edge="1">
          <mxGeometry relative="1" as="geometry" />
        </mxCell>
        <mxCell id="vwuv4UBcXKUOzSzQAbg--13" value="Register" style="whiteSpace=wrap;html=1;fillColor=#dae8fc;strokeColor=#6c8ebf;rounded=1;" parent="vwuv4UBcXKUOzSzQAbg--1" vertex="1">
          <mxGeometry x="430" y="450" width="120" height="60" as="geometry" />
        </mxCell>
        <mxCell id="vwuv4UBcXKUOzSzQAbg--19" value="Ya" style="edgeStyle=orthogonalEdgeStyle;rounded=0;orthogonalLoop=1;jettySize=auto;html=1;exitX=1;exitY=0.5;exitDx=0;exitDy=0;entryX=0.5;entryY=1;entryDx=0;entryDy=0;" parent="vwuv4UBcXKUOzSzQAbg--1" source="vwuv4UBcXKUOzSzQAbg--15" target="vwuv4UBcXKUOzSzQAbg--17" edge="1">
          <mxGeometry x="-0.8462" relative="1" as="geometry">
            <mxPoint as="offset" />
          </mxGeometry>
        </mxCell>
        <mxCell id="vwuv4UBcXKUOzSzQAbg--15" value="Login Berhasil?" style="rhombus;whiteSpace=wrap;html=1;fillColor=#fff2cc;strokeColor=#d6b656;rounded=1;" parent="vwuv4UBcXKUOzSzQAbg--1" vertex="1">
          <mxGeometry x="650" y="300" width="80" height="80" as="geometry" />
        </mxCell>
        <mxCell id="vwuv4UBcXKUOzSzQAbg--28" value="" style="edgeStyle=orthogonalEdgeStyle;rounded=0;orthogonalLoop=1;jettySize=auto;html=1;" parent="vwuv4UBcXKUOzSzQAbg--1" source="vwuv4UBcXKUOzSzQAbg--17" target="vwuv4UBcXKUOzSzQAbg--27" edge="1">
          <mxGeometry relative="1" as="geometry" />
        </mxCell>
        <mxCell id="vwuv4UBcXKUOzSzQAbg--17" value="Kurikulum&lt;br&gt;(List Video)" style="whiteSpace=wrap;html=1;fillColor=#dae8fc;strokeColor=#6c8ebf;rounded=1;" parent="vwuv4UBcXKUOzSzQAbg--1" vertex="1">
          <mxGeometry x="800" y="150" width="120" height="60" as="geometry" />
        </mxCell>
        <mxCell id="vwuv4UBcXKUOzSzQAbg--23" value="Ya" style="edgeStyle=orthogonalEdgeStyle;rounded=0;orthogonalLoop=1;jettySize=auto;html=1;exitX=1;exitY=0.5;exitDx=0;exitDy=0;entryX=0.5;entryY=1;entryDx=0;entryDy=0;" parent="vwuv4UBcXKUOzSzQAbg--1" source="vwuv4UBcXKUOzSzQAbg--21" target="vwuv4UBcXKUOzSzQAbg--17" edge="1">
          <mxGeometry x="-0.9" relative="1" as="geometry">
            <mxPoint as="offset" />
          </mxGeometry>
        </mxCell>
        <mxCell id="vwuv4UBcXKUOzSzQAbg--26" value="Tidak" style="edgeStyle=orthogonalEdgeStyle;rounded=0;orthogonalLoop=1;jettySize=auto;html=1;exitX=0.5;exitY=0;exitDx=0;exitDy=0;entryX=1;entryY=0.25;entryDx=0;entryDy=0;" parent="vwuv4UBcXKUOzSzQAbg--1" source="vwuv4UBcXKUOzSzQAbg--21" target="vwuv4UBcXKUOzSzQAbg--13" edge="1">
          <mxGeometry x="-0.9024" relative="1" as="geometry">
            <mxPoint as="offset" />
          </mxGeometry>
        </mxCell>
        <mxCell id="vwuv4UBcXKUOzSzQAbg--21" value="Register Berhasil?" style="rhombus;whiteSpace=wrap;html=1;fillColor=#fff2cc;strokeColor=#d6b656;rounded=1;" parent="vwuv4UBcXKUOzSzQAbg--1" vertex="1">
          <mxGeometry x="650" y="440" width="80" height="80" as="geometry" />
        </mxCell>
        <mxCell id="vwuv4UBcXKUOzSzQAbg--27" value="Profil" style="whiteSpace=wrap;html=1;fillColor=#dae8fc;strokeColor=#6c8ebf;rounded=1;" parent="vwuv4UBcXKUOzSzQAbg--1" vertex="1">
          <mxGeometry x="800" y="50" width="120" height="60" as="geometry" />
        </mxCell>
        <mxCell id="vwuv4UBcXKUOzSzQAbg--37" value="Belum" style="edgeStyle=orthogonalEdgeStyle;rounded=0;orthogonalLoop=1;jettySize=auto;html=1;" parent="vwuv4UBcXKUOzSzQAbg--1" source="vwuv4UBcXKUOzSzQAbg--31" target="vwuv4UBcXKUOzSzQAbg--36" edge="1">
          <mxGeometry relative="1" as="geometry" />
        </mxCell>
        <mxCell id="vwuv4UBcXKUOzSzQAbg--31" value="Sudah Berlangganan?" style="rhombus;whiteSpace=wrap;html=1;fillColor=#fff2cc;strokeColor=#d6b656;rounded=1;" parent="vwuv4UBcXKUOzSzQAbg--1" vertex="1">
          <mxGeometry x="1220" y="125" width="110" height="110" as="geometry" />
        </mxCell>
        <mxCell id="vwuv4UBcXKUOzSzQAbg--39" value="" style="edgeStyle=orthogonalEdgeStyle;rounded=0;orthogonalLoop=1;jettySize=auto;html=1;" parent="vwuv4UBcXKUOzSzQAbg--1" source="vwuv4UBcXKUOzSzQAbg--36" target="vwuv4UBcXKUOzSzQAbg--38" edge="1">
          <mxGeometry relative="1" as="geometry" />
        </mxCell>
        <mxCell id="vwuv4UBcXKUOzSzQAbg--36" value="Pilih Paket Langganan" style="whiteSpace=wrap;html=1;fillColor=#dae8fc;strokeColor=#6c8ebf;rounded=1;" parent="vwuv4UBcXKUOzSzQAbg--1" vertex="1">
          <mxGeometry x="1215" y="340" width="120" height="60" as="geometry" />
        </mxCell>
        <mxCell id="vwuv4UBcXKUOzSzQAbg--38" value="Halaman Pembayaran" style="whiteSpace=wrap;html=1;fillColor=#dae8fc;strokeColor=#6c8ebf;rounded=1;" parent="vwuv4UBcXKUOzSzQAbg--1" vertex="1">
          <mxGeometry x="1415" y="340" width="120" height="60" as="geometry" />
        </mxCell>
        <mxCell id="MDb2n4QmbUKZTfVuzszc-0" value="Halaman Artikel" style="whiteSpace=wrap;html=1;fillColor=#dae8fc;strokeColor=#6c8ebf;rounded=1;" parent="vwuv4UBcXKUOzSzQAbg--1" vertex="1">
          <mxGeometry x="220" y="430" width="120" height="60" as="geometry" />
        </mxCell>
        <mxCell id="vwuv4UBcXKUOzSzQAbg--12" value="Belum" style="edgeStyle=orthogonalEdgeStyle;rounded=0;orthogonalLoop=1;jettySize=auto;html=1;" parent="WIyWlLk6GJQsqaUBKTNV-1" source="vwuv4UBcXKUOzSzQAbg--9" target="vwuv4UBcXKUOzSzQAbg--11" edge="1">
          <mxGeometry relative="1" as="geometry" />
        </mxCell>
        <mxCell id="vwuv4UBcXKUOzSzQAbg--18" value="Sudah" style="edgeStyle=orthogonalEdgeStyle;rounded=0;orthogonalLoop=1;jettySize=auto;html=1;" parent="WIyWlLk6GJQsqaUBKTNV-1" source="vwuv4UBcXKUOzSzQAbg--9" target="vwuv4UBcXKUOzSzQAbg--17" edge="1">
          <mxGeometry relative="1" as="geometry" />
        </mxCell>
        <mxCell id="vwuv4UBcXKUOzSzQAbg--9" value="Sudah Login?" style="rhombus;whiteSpace=wrap;html=1;fillColor=#fff2cc;strokeColor=#d6b656;rounded=1;" parent="WIyWlLk6GJQsqaUBKTNV-1" vertex="1">
          <mxGeometry x="590" y="280" width="100" height="80" as="geometry" />
        </mxCell>
        <mxCell id="vwuv4UBcXKUOzSzQAbg--10" value="" style="edgeStyle=orthogonalEdgeStyle;rounded=0;orthogonalLoop=1;jettySize=auto;html=1;" parent="WIyWlLk6GJQsqaUBKTNV-1" source="vwuv4UBcXKUOzSzQAbg--3" target="vwuv4UBcXKUOzSzQAbg--9" edge="1">
          <mxGeometry relative="1" as="geometry" />
        </mxCell>
        <mxCell id="vwuv4UBcXKUOzSzQAbg--14" value="" style="edgeStyle=orthogonalEdgeStyle;rounded=0;orthogonalLoop=1;jettySize=auto;html=1;" parent="WIyWlLk6GJQsqaUBKTNV-1" source="vwuv4UBcXKUOzSzQAbg--11" target="vwuv4UBcXKUOzSzQAbg--13" edge="1">
          <mxGeometry relative="1" as="geometry" />
        </mxCell>
        <mxCell id="vwuv4UBcXKUOzSzQAbg--16" value="" style="edgeStyle=orthogonalEdgeStyle;rounded=0;orthogonalLoop=1;jettySize=auto;html=1;" parent="WIyWlLk6GJQsqaUBKTNV-1" source="vwuv4UBcXKUOzSzQAbg--11" target="vwuv4UBcXKUOzSzQAbg--15" edge="1">
          <mxGeometry relative="1" as="geometry" />
        </mxCell>
        <UserObject label="Login" link="data:page/id,gBCkAdJjXBEJs2clmntb" id="vwuv4UBcXKUOzSzQAbg--11">
          <mxCell style="whiteSpace=wrap;html=1;fillColor=#dae8fc;strokeColor=#6c8ebf;rounded=1;" parent="WIyWlLk6GJQsqaUBKTNV-1" vertex="1">
            <mxGeometry x="580" y="450" width="120" height="60" as="geometry" />
          </mxCell>
        </UserObject>
        <mxCell id="vwuv4UBcXKUOzSzQAbg--24" value="Tidak" style="edgeStyle=orthogonalEdgeStyle;rounded=0;orthogonalLoop=1;jettySize=auto;html=1;exitX=0.5;exitY=0;exitDx=0;exitDy=0;entryX=1;entryY=0.25;entryDx=0;entryDy=0;" parent="WIyWlLk6GJQsqaUBKTNV-1" source="vwuv4UBcXKUOzSzQAbg--15" target="vwuv4UBcXKUOzSzQAbg--11" edge="1">
          <mxGeometry x="-0.9024" relative="1" as="geometry">
            <mxPoint as="offset" />
          </mxGeometry>
        </mxCell>
        <mxCell id="vwuv4UBcXKUOzSzQAbg--32" value="" style="edgeStyle=orthogonalEdgeStyle;rounded=0;orthogonalLoop=1;jettySize=auto;html=1;" parent="WIyWlLk6GJQsqaUBKTNV-1" source="vwuv4UBcXKUOzSzQAbg--29" target="vwuv4UBcXKUOzSzQAbg--31" edge="1">
          <mxGeometry relative="1" as="geometry" />
        </mxCell>
        <mxCell id="vwuv4UBcXKUOzSzQAbg--29" value="Pilih Video" style="shape=trapezoid;perimeter=trapezoidPerimeter;whiteSpace=wrap;html=1;fixedSize=1;fillColor=#e1d5e7;strokeColor=#9673a6;rounded=1;" parent="WIyWlLk6GJQsqaUBKTNV-1" vertex="1">
          <mxGeometry x="1150" y="290" width="120" height="60" as="geometry" />
        </mxCell>
        <mxCell id="vwuv4UBcXKUOzSzQAbg--30" value="" style="edgeStyle=orthogonalEdgeStyle;rounded=0;orthogonalLoop=1;jettySize=auto;html=1;" parent="WIyWlLk6GJQsqaUBKTNV-1" source="vwuv4UBcXKUOzSzQAbg--17" target="vwuv4UBcXKUOzSzQAbg--29" edge="1">
          <mxGeometry relative="1" as="geometry" />
        </mxCell>
        <mxCell id="vwuv4UBcXKUOzSzQAbg--42" value="" style="edgeStyle=orthogonalEdgeStyle;rounded=0;orthogonalLoop=1;jettySize=auto;html=1;" parent="WIyWlLk6GJQsqaUBKTNV-1" source="vwuv4UBcXKUOzSzQAbg--34" target="vwuv4UBcXKUOzSzQAbg--41" edge="1">
          <mxGeometry relative="1" as="geometry" />
        </mxCell>
        <mxCell id="vwuv4UBcXKUOzSzQAbg--34" value="Video yang dipilih" style="whiteSpace=wrap;html=1;fillColor=#dae8fc;strokeColor=#6c8ebf;rounded=1;" parent="WIyWlLk6GJQsqaUBKTNV-1" vertex="1">
          <mxGeometry x="1555" y="290" width="120" height="60" as="geometry" />
        </mxCell>
        <mxCell id="vwuv4UBcXKUOzSzQAbg--35" value="Sudah" style="edgeStyle=orthogonalEdgeStyle;rounded=0;orthogonalLoop=1;jettySize=auto;html=1;" parent="WIyWlLk6GJQsqaUBKTNV-1" source="vwuv4UBcXKUOzSzQAbg--31" target="vwuv4UBcXKUOzSzQAbg--34" edge="1">
          <mxGeometry relative="1" as="geometry" />
        </mxCell>
        <mxCell id="vwuv4UBcXKUOzSzQAbg--40" style="edgeStyle=orthogonalEdgeStyle;rounded=0;orthogonalLoop=1;jettySize=auto;html=1;exitX=0.5;exitY=0;exitDx=0;exitDy=0;entryX=0.575;entryY=1.033;entryDx=0;entryDy=0;entryPerimeter=0;" parent="WIyWlLk6GJQsqaUBKTNV-1" source="vwuv4UBcXKUOzSzQAbg--38" target="vwuv4UBcXKUOzSzQAbg--34" edge="1">
          <mxGeometry relative="1" as="geometry" />
        </mxCell>
        <mxCell id="vwuv4UBcXKUOzSzQAbg--41" value="Selesai" style="whiteSpace=wrap;html=1;fillColor=#d5e8d4;strokeColor=#82b366;rounded=1;" parent="WIyWlLk6GJQsqaUBKTNV-1" vertex="1">
          <mxGeometry x="1755" y="290" width="120" height="60" as="geometry" />
        </mxCell>
      </root>
    </mxGraphModel>
  </diagram>
  <diagram id="luoAxybNkDgx6P6GwI3_" name="Landing Page">
    <mxGraphModel dx="868" dy="1643" grid="1" gridSize="10" guides="1" tooltips="1" connect="1" arrows="1" fold="1" page="1" pageScale="1" pageWidth="827" pageHeight="1169" math="0" shadow="0">
      <root>
        <mxCell id="0" />
        <mxCell id="1" parent="0" />
        <mxCell id="u8G000GdkmpwsC1aAmUt-19" value="" style="group" parent="1" vertex="1" connectable="0">
          <mxGeometry x="314" y="-1120" width="200" height="390" as="geometry" />
        </mxCell>
        <mxCell id="u8G000GdkmpwsC1aAmUt-13" value="" style="verticalLabelPosition=bottom;verticalAlign=top;html=1;shadow=0;dashed=0;strokeWidth=1;shape=mxgraph.android.phone2;strokeColor=#666666;fillColor=#f5f5f5;fontColor=#333333;" parent="u8G000GdkmpwsC1aAmUt-19" vertex="1">
          <mxGeometry width="200" height="390" as="geometry" />
        </mxCell>
        <mxCell id="u8G000GdkmpwsC1aAmUt-14" value="" style="verticalLabelPosition=bottom;shadow=0;dashed=0;align=center;html=1;verticalAlign=top;strokeWidth=1;shape=mxgraph.mockup.graphics.simpleIcon;strokeColor=#82b366;fillColor=#d5e8d4;" parent="u8G000GdkmpwsC1aAmUt-19" vertex="1">
          <mxGeometry x="15" y="40" width="50" height="20" as="geometry" />
        </mxCell>
        <mxCell id="u8G000GdkmpwsC1aAmUt-16" value="Disability Care" style="text;strokeColor=none;fillColor=none;html=1;fontSize=24;fontStyle=1;verticalAlign=middle;align=center;fontColor=#009900;" parent="u8G000GdkmpwsC1aAmUt-19" vertex="1">
          <mxGeometry x="10" y="100" width="180" height="40" as="geometry" />
        </mxCell>
        <mxCell id="u8G000GdkmpwsC1aAmUt-17" value="" style="line;strokeWidth=2;html=1;" parent="u8G000GdkmpwsC1aAmUt-19" vertex="1">
          <mxGeometry x="20" y="140" width="160" height="10" as="geometry" />
        </mxCell>
        <mxCell id="u8G000GdkmpwsC1aAmUt-18" value="Lorem ipsum dolor sit amet, consectetur adipisicing elit, sed do eiusmod tempor incididunt ut labore et dolore magna aliqua. Ut enim ad minim veniam, quis nostrud exercitation ullamco laboris nisi ut aliquip ex ea commodo consequat." style="text;spacingTop=-5;whiteSpace=wrap;html=1;align=left;fontSize=12;fontFamily=Helvetica;fillColor=none;strokeColor=none;" parent="u8G000GdkmpwsC1aAmUt-19" vertex="1">
          <mxGeometry x="20" y="160" width="145" height="150" as="geometry" />
        </mxCell>
        <mxCell id="UZEO_q5DwTr9vSXdgPJz-1" value="" style="ellipse;whiteSpace=wrap;html=1;strokeWidth=2;fillWeight=2;hachureGap=8;fillColor=#990000;fillStyle=dots;sketch=1;strokeColor=default;fontSize=10;fontColor=#000000;" parent="u8G000GdkmpwsC1aAmUt-19" vertex="1">
          <mxGeometry x="150" y="40" width="30" height="30" as="geometry" />
        </mxCell>
        <mxCell id="u8G000GdkmpwsC1aAmUt-20" value="" style="verticalLabelPosition=bottom;verticalAlign=top;html=1;shadow=0;dashed=0;strokeWidth=1;shape=mxgraph.android.phone2;strokeColor=#666666;fontColor=#333333;fillColor=#f5f5f5;" parent="1" vertex="1">
          <mxGeometry x="314" y="-700" width="200" height="390" as="geometry" />
        </mxCell>
        <mxCell id="u8G000GdkmpwsC1aAmUt-21" value="Our Activity" style="text;strokeColor=none;fillColor=none;html=1;fontSize=24;fontStyle=1;verticalAlign=middle;align=center;fontColor=#009900;" parent="1" vertex="1">
          <mxGeometry x="364" y="-650" width="100" height="40" as="geometry" />
        </mxCell>
        <mxCell id="u8G000GdkmpwsC1aAmUt-22" value="" style="line;strokeWidth=2;html=1;fillColor=#d5e8d4;strokeColor=#82b366;" parent="1" vertex="1">
          <mxGeometry x="379" y="-610" width="70" height="10" as="geometry" />
        </mxCell>
        <mxCell id="u8G000GdkmpwsC1aAmUt-24" value="" style="rounded=0;whiteSpace=wrap;html=1;fontColor=#009900;" parent="1" vertex="1">
          <mxGeometry x="354" y="-584" width="120" height="144" as="geometry" />
        </mxCell>
        <mxCell id="u8G000GdkmpwsC1aAmUt-25" value="&lt;font color=&quot;#000000&quot;&gt;Gambar Artikel&lt;/font&gt;" style="rounded=1;whiteSpace=wrap;html=1;strokeWidth=2;fillWeight=4;hachureGap=8;hachureAngle=45;fillColor=#1ba1e2;sketch=1;fontColor=#009900;" parent="1" vertex="1">
          <mxGeometry x="354" y="-584" width="120" height="60" as="geometry" />
        </mxCell>
        <mxCell id="u8G000GdkmpwsC1aAmUt-27" value="&lt;b&gt;&lt;font color=&quot;#000000&quot;&gt;Judul Teks&lt;/font&gt;&lt;/b&gt;" style="text;html=1;strokeColor=none;fillColor=none;align=center;verticalAlign=middle;whiteSpace=wrap;rounded=0;fontColor=#009900;" parent="1" vertex="1">
          <mxGeometry x="354" y="-527" width="76" height="30" as="geometry" />
        </mxCell>
        <mxCell id="u8G000GdkmpwsC1aAmUt-28" value="" style="shape=mxgraph.mockup.markup.scratchOut;shadow=0;dashed=0;html=1;strokeColor=#999999;strokeWidth=2;fontColor=#000000;" parent="1" vertex="1">
          <mxGeometry x="359" y="-497" width="111" height="50" as="geometry" />
        </mxCell>
        <mxCell id="u8G000GdkmpwsC1aAmUt-29" value="Lihat Lainnya" style="strokeWidth=1;shadow=0;dashed=0;align=center;html=1;shape=mxgraph.mockup.buttons.button;strokeColor=#82b366;mainText=;buttonStyle=round;fontSize=10;fontStyle=1;fillColor=#d5e8d4;whiteSpace=wrap;" parent="1" vertex="1">
          <mxGeometry x="363" y="-380" width="100.5" height="20" as="geometry" />
        </mxCell>
        <mxCell id="u8G000GdkmpwsC1aAmUt-30" value="" style="verticalLabelPosition=bottom;verticalAlign=top;html=1;shadow=0;dashed=0;strokeWidth=1;shape=mxgraph.android.phone2;strokeColor=#666666;fontSize=10;fontColor=#333333;fillColor=#f5f5f5;" parent="1" vertex="1">
          <mxGeometry x="314" y="-290" width="200" height="390" as="geometry" />
        </mxCell>
        <mxCell id="u8G000GdkmpwsC1aAmUt-31" value="FAQ" style="text;strokeColor=none;fillColor=none;html=1;fontSize=24;fontStyle=1;verticalAlign=middle;align=center;strokeWidth=2;fontColor=#009900;" parent="1" vertex="1">
          <mxGeometry x="364.5" y="-240" width="100" height="40" as="geometry" />
        </mxCell>
        <mxCell id="u8G000GdkmpwsC1aAmUt-32" value="" style="line;strokeWidth=2;html=1;fillColor=#d5e8d4;strokeColor=#82b366;" parent="1" vertex="1">
          <mxGeometry x="379.5" y="-210" width="70" height="10" as="geometry" />
        </mxCell>
        <mxCell id="u8G000GdkmpwsC1aAmUt-34" value="" style="shape=mxgraph.mockup.markup.scratchOut;shadow=0;dashed=0;html=1;strokeColor=#999999;strokeWidth=4;fontSize=10;fontColor=#009900;rotation=-180;" parent="1" vertex="1">
          <mxGeometry x="352" y="-70" width="114.5" height="100" as="geometry" />
        </mxCell>
        <mxCell id="u8G000GdkmpwsC1aAmUt-35" value="" style="verticalLabelPosition=bottom;verticalAlign=top;html=1;shadow=0;dashed=0;strokeWidth=1;shape=mxgraph.android.phone2;strokeColor=#666666;fontSize=10;fontColor=#333333;fillColor=#f5f5f5;" parent="1" vertex="1">
          <mxGeometry x="309.25" y="130" width="200" height="390" as="geometry" />
        </mxCell>
        <mxCell id="u8G000GdkmpwsC1aAmUt-37" value="&lt;h1 style=&quot;text-align: center;&quot;&gt;Donasi&lt;/h1&gt;&lt;p style=&quot;text-align: center;&quot;&gt;&lt;font color=&quot;#000000&quot;&gt;Lorem ipsum dolor sit amet, consectetur adipisicing elit, sed do eiusmod tempor incididunt ut labore et dolore magna aliqua.&lt;/font&gt;&lt;/p&gt;" style="text;html=1;strokeColor=none;fillColor=none;spacing=5;spacingTop=-20;whiteSpace=wrap;overflow=hidden;rounded=0;strokeWidth=2;fontSize=10;fontColor=#009900;" parent="1" vertex="1">
          <mxGeometry x="329.25" y="210" width="160" height="120" as="geometry" />
        </mxCell>
        <mxCell id="u8G000GdkmpwsC1aAmUt-39" value="Yuk Donasi" style="strokeWidth=1;shadow=0;dashed=0;align=center;html=1;shape=mxgraph.mockup.buttons.button;strokeColor=#82b366;mainText=;buttonStyle=round;fontSize=10;fontStyle=1;fillColor=#d5e8d4;whiteSpace=wrap;" parent="1" vertex="1">
          <mxGeometry x="359" y="330" width="100.5" height="20" as="geometry" />
        </mxCell>
        <mxCell id="u8G000GdkmpwsC1aAmUt-40" value="" style="verticalLabelPosition=bottom;verticalAlign=top;html=1;shadow=0;dashed=0;strokeWidth=1;strokeColor=none;shape=rect;fillColor=#669900;fontSize=10;fontColor=#000000;" parent="1" vertex="1">
          <mxGeometry x="313" y="380" width="192" height="105" as="geometry" />
        </mxCell>
        <mxCell id="u8G000GdkmpwsC1aAmUt-41" value="Logo D-Care" style="verticalLabelPosition=bottom;shadow=0;dashed=0;align=center;html=1;verticalAlign=top;strokeWidth=1;shape=mxgraph.mockup.graphics.simpleIcon;strokeColor=#999999;fontSize=10;fontColor=#000000;" parent="1" vertex="1">
          <mxGeometry x="410" y="407.5" width="89" height="50" as="geometry" />
        </mxCell>
        <mxCell id="u8G000GdkmpwsC1aAmUt-55" value="" style="shape=mxgraph.mockup.markup.scratchOut;shadow=0;dashed=0;html=1;strokeColor=#999999;strokeWidth=4;fontSize=10;fontColor=#000000;" parent="1" vertex="1">
          <mxGeometry x="329.25" y="395" width="60" height="75" as="geometry" />
        </mxCell>
        <mxCell id="u8G000GdkmpwsC1aAmUt-57" value="Logo D-Care" style="text;html=1;strokeColor=none;fillColor=none;align=center;verticalAlign=middle;whiteSpace=wrap;rounded=0;strokeWidth=2;fontSize=10;fontColor=#000000;" parent="1" vertex="1">
          <mxGeometry x="188" y="-1087" width="60" height="30" as="geometry" />
        </mxCell>
        <mxCell id="u8G000GdkmpwsC1aAmUt-58" value="" style="endArrow=classic;html=1;rounded=0;fontSize=10;fontColor=#000000;entryX=0.44;entryY=0.45;entryDx=0;entryDy=0;entryPerimeter=0;" parent="1" target="u8G000GdkmpwsC1aAmUt-14" edge="1">
          <mxGeometry width="50" height="50" relative="1" as="geometry">
            <mxPoint x="250" y="-1071" as="sourcePoint" />
            <mxPoint x="270" y="-1120" as="targetPoint" />
          </mxGeometry>
        </mxCell>
        <mxCell id="u8G000GdkmpwsC1aAmUt-59" value="" style="labelPosition=right;align=left;strokeWidth=1;shape=mxgraph.mockup.markup.curlyBrace;html=1;shadow=0;dashed=0;strokeColor=#999999;direction=north;fontSize=10;fontColor=#000000;" parent="1" vertex="1">
          <mxGeometry x="329.25" y="-562" width="20" height="100" as="geometry" />
        </mxCell>
        <mxCell id="u8G000GdkmpwsC1aAmUt-60" value="" style="verticalLabelPosition=bottom;shadow=0;dashed=0;align=center;html=1;verticalAlign=top;strokeWidth=1;shape=mxgraph.mockup.markup.line;strokeColor=#999999;fontSize=10;fontColor=#000000;" parent="1" vertex="1">
          <mxGeometry x="229.25" y="-522" width="100" height="20" as="geometry" />
        </mxCell>
        <mxCell id="u8G000GdkmpwsC1aAmUt-61" value="- Tampilkan 3 artikel (&amp;lt; md)&lt;br&gt;- Tampilkan 4-5 artikel (&amp;gt;= md)&lt;br&gt;- Ketika diklik, menuju artikel yang dipilih" style="text;html=1;align=left;verticalAlign=top;whiteSpace=wrap;rounded=0;strokeWidth=1;fontSize=10;strokeColor=default;" parent="1" vertex="1">
          <mxGeometry x="40" y="-536" width="189.25" height="48" as="geometry" />
        </mxCell>
        <mxCell id="u8G000GdkmpwsC1aAmUt-62" value="" style="endArrow=classic;html=1;rounded=0;fontSize=10;fontColor=#000000;entryX=0.07;entryY=0.5;entryDx=0;entryDy=0;entryPerimeter=0;" parent="1" target="u8G000GdkmpwsC1aAmUt-29" edge="1">
          <mxGeometry width="50" height="50" relative="1" as="geometry">
            <mxPoint x="220" y="-370" as="sourcePoint" />
            <mxPoint x="420" y="-410" as="targetPoint" />
          </mxGeometry>
        </mxCell>
        <mxCell id="u8G000GdkmpwsC1aAmUt-63" value="Menuju halaman list artikel" style="text;html=1;strokeColor=none;fillColor=none;align=center;verticalAlign=middle;whiteSpace=wrap;rounded=0;strokeWidth=1;fontSize=10;fontColor=#000000;" parent="1" vertex="1">
          <mxGeometry x="90" y="-385" width="130" height="30" as="geometry" />
        </mxCell>
        <mxCell id="u8G000GdkmpwsC1aAmUt-64" value="" style="shape=mxgraph.mockup.markup.scratchOut;shadow=0;dashed=0;html=1;strokeColor=#999999;strokeWidth=4;fontSize=10;fontColor=#009900;rotation=-180;" parent="1" vertex="1">
          <mxGeometry x="350" y="-190" width="114.5" height="100" as="geometry" />
        </mxCell>
        <mxCell id="u8G000GdkmpwsC1aAmUt-65" value="" style="endArrow=classic;html=1;rounded=0;fontSize=10;fontColor=#000000;entryX=0.526;entryY=0.408;entryDx=0;entryDy=0;entryPerimeter=0;" parent="1" target="u8G000GdkmpwsC1aAmUt-64" edge="1">
          <mxGeometry width="50" height="50" relative="1" as="geometry">
            <mxPoint x="230" y="-130" as="sourcePoint" />
            <mxPoint x="370" y="-120" as="targetPoint" />
          </mxGeometry>
        </mxCell>
        <mxCell id="u8G000GdkmpwsC1aAmUt-66" value="Format FAQ:&lt;br&gt;&lt;b&gt;Q&lt;/b&gt;: blablablabla&lt;br&gt;&lt;b&gt;A&lt;/b&gt;: blablablabala" style="text;html=1;strokeColor=default;fillColor=none;align=left;verticalAlign=top;whiteSpace=wrap;rounded=0;strokeWidth=1;fontSize=10;fontColor=#000000;" parent="1" vertex="1">
          <mxGeometry x="149.25" y="-150" width="80" height="50" as="geometry" />
        </mxCell>
        <mxCell id="u8G000GdkmpwsC1aAmUt-67" value="" style="endArrow=classic;html=1;rounded=0;fontSize=10;fontColor=#000000;entryX=1;entryY=0.5;entryDx=0;entryDy=0;" parent="1" target="u8G000GdkmpwsC1aAmUt-27" edge="1">
          <mxGeometry width="50" height="50" relative="1" as="geometry">
            <mxPoint x="550" y="-512" as="sourcePoint" />
            <mxPoint x="450" y="-590" as="targetPoint" />
          </mxGeometry>
        </mxCell>
        <mxCell id="u8G000GdkmpwsC1aAmUt-68" value="Judul line clamp 2" style="text;html=1;strokeColor=none;fillColor=none;align=center;verticalAlign=middle;whiteSpace=wrap;rounded=0;strokeWidth=1;fontSize=10;fontColor=#000000;" parent="1" vertex="1">
          <mxGeometry x="550" y="-527" width="90" height="30" as="geometry" />
        </mxCell>
        <mxCell id="u8G000GdkmpwsC1aAmUt-69" value="" style="endArrow=classic;html=1;rounded=0;fontSize=10;fontColor=#000000;entryX=1;entryY=0.5;entryDx=0;entryDy=0;" parent="1" edge="1">
          <mxGeometry width="50" height="50" relative="1" as="geometry">
            <mxPoint x="550" y="-476.9999999999999" as="sourcePoint" />
            <mxPoint x="429.9999999999999" y="-476.9999999999999" as="targetPoint" />
          </mxGeometry>
        </mxCell>
        <mxCell id="u8G000GdkmpwsC1aAmUt-70" value="Deskripsi line clamp 7 baris.&lt;br&gt;dan juga memuat: Penulis dan Tanggal" style="text;html=1;strokeColor=none;fillColor=none;align=left;verticalAlign=middle;whiteSpace=wrap;rounded=0;strokeWidth=1;fontSize=10;fontColor=#000000;" parent="1" vertex="1">
          <mxGeometry x="550" y="-492" width="140" height="30" as="geometry" />
        </mxCell>
        <mxCell id="u8G000GdkmpwsC1aAmUt-71" value="" style="endArrow=classic;html=1;rounded=0;fontSize=10;fontColor=#000000;" parent="1" target="u8G000GdkmpwsC1aAmUt-39" edge="1">
          <mxGeometry width="50" height="50" relative="1" as="geometry">
            <mxPoint x="230" y="340" as="sourcePoint" />
            <mxPoint x="470" y="260" as="targetPoint" />
          </mxGeometry>
        </mxCell>
        <mxCell id="u8G000GdkmpwsC1aAmUt-72" value="Menuju Halaman Donasi" style="text;html=1;strokeColor=none;fillColor=none;align=center;verticalAlign=middle;whiteSpace=wrap;rounded=0;strokeWidth=1;fontSize=10;fontColor=#000000;" parent="1" vertex="1">
          <mxGeometry x="112" y="325" width="120" height="30" as="geometry" />
        </mxCell>
        <mxCell id="u8G000GdkmpwsC1aAmUt-73" value="" style="endArrow=classic;html=1;rounded=0;fontSize=10;fontColor=#000000;" parent="1" edge="1">
          <mxGeometry width="50" height="50" relative="1" as="geometry">
            <mxPoint x="250" y="432" as="sourcePoint" />
            <mxPoint x="361" y="432.1600000000002" as="targetPoint" />
          </mxGeometry>
        </mxCell>
        <mxCell id="u8G000GdkmpwsC1aAmUt-74" value="Contact Person" style="text;html=1;strokeColor=none;fillColor=none;align=center;verticalAlign=middle;whiteSpace=wrap;rounded=0;strokeWidth=1;fontSize=10;fontColor=#000000;" parent="1" vertex="1">
          <mxGeometry x="168" y="417.5" width="80" height="30" as="geometry" />
        </mxCell>
        <mxCell id="UZEO_q5DwTr9vSXdgPJz-10" value="" style="group" parent="1" vertex="1" connectable="0">
          <mxGeometry x="1140" y="-1120" width="200" height="390" as="geometry" />
        </mxCell>
        <mxCell id="UZEO_q5DwTr9vSXdgPJz-11" value="" style="verticalLabelPosition=bottom;verticalAlign=top;html=1;shadow=0;dashed=0;strokeWidth=1;shape=mxgraph.android.phone2;strokeColor=#666666;fillColor=#f5f5f5;fontColor=#333333;" parent="UZEO_q5DwTr9vSXdgPJz-10" vertex="1">
          <mxGeometry width="200" height="390" as="geometry" />
        </mxCell>
        <mxCell id="UZEO_q5DwTr9vSXdgPJz-12" value="" style="verticalLabelPosition=bottom;shadow=0;dashed=0;align=center;html=1;verticalAlign=top;strokeWidth=1;shape=mxgraph.mockup.graphics.simpleIcon;strokeColor=#82b366;fillColor=#d5e8d4;" parent="UZEO_q5DwTr9vSXdgPJz-10" vertex="1">
          <mxGeometry x="15" y="40" width="50" height="20" as="geometry" />
        </mxCell>
        <mxCell id="UZEO_q5DwTr9vSXdgPJz-13" value="Disability Care" style="text;strokeColor=none;fillColor=none;html=1;fontSize=24;fontStyle=1;verticalAlign=middle;align=center;fontColor=#009900;" parent="UZEO_q5DwTr9vSXdgPJz-10" vertex="1">
          <mxGeometry x="10" y="100" width="180" height="40" as="geometry" />
        </mxCell>
        <mxCell id="UZEO_q5DwTr9vSXdgPJz-14" value="" style="line;strokeWidth=2;html=1;" parent="UZEO_q5DwTr9vSXdgPJz-10" vertex="1">
          <mxGeometry x="20" y="140" width="160" height="10" as="geometry" />
        </mxCell>
        <mxCell id="UZEO_q5DwTr9vSXdgPJz-15" value="Lorem ipsum dolor sit amet, consectetur adipisicing elit, sed do eiusmod tempor incididunt ut labore et dolore magna aliqua. Ut enim ad minim veniam, quis nostrud exercitation ullamco laboris nisi ut aliquip ex ea commodo consequat." style="text;spacingTop=-5;whiteSpace=wrap;html=1;align=left;fontSize=12;fontFamily=Helvetica;fillColor=none;strokeColor=none;" parent="UZEO_q5DwTr9vSXdgPJz-10" vertex="1">
          <mxGeometry x="20" y="160" width="145" height="150" as="geometry" />
        </mxCell>
        <mxCell id="UZEO_q5DwTr9vSXdgPJz-16" value="" style="ellipse;whiteSpace=wrap;html=1;strokeWidth=2;fillWeight=2;hachureGap=8;fillColor=#990000;fillStyle=dots;sketch=1;strokeColor=default;fontSize=10;fontColor=#000000;" parent="UZEO_q5DwTr9vSXdgPJz-10" vertex="1">
          <mxGeometry x="150" y="40" width="30" height="30" as="geometry" />
        </mxCell>
        <mxCell id="UZEO_q5DwTr9vSXdgPJz-17" value="" style="rounded=0;whiteSpace=wrap;html=1;strokeColor=default;strokeWidth=1;fontSize=10;fontColor=#000000;" parent="UZEO_q5DwTr9vSXdgPJz-10" vertex="1">
          <mxGeometry x="90" y="35" width="103" height="325" as="geometry" />
        </mxCell>
        <mxCell id="UZEO_q5DwTr9vSXdgPJz-18" value="&lt;b&gt;Masuk&lt;/b&gt;" style="text;html=1;strokeColor=none;fillColor=none;align=left;verticalAlign=middle;whiteSpace=wrap;rounded=0;strokeWidth=1;fontSize=10;fontColor=#000000;" parent="UZEO_q5DwTr9vSXdgPJz-10" vertex="1">
          <mxGeometry x="101" y="60" width="39" height="30" as="geometry" />
        </mxCell>
        <mxCell id="UZEO_q5DwTr9vSXdgPJz-19" value="&lt;b&gt;Kurikulum&lt;/b&gt;" style="text;html=1;strokeColor=none;fillColor=none;align=left;verticalAlign=middle;whiteSpace=wrap;rounded=0;strokeWidth=1;fontSize=10;fontColor=#000000;" parent="UZEO_q5DwTr9vSXdgPJz-10" vertex="1">
          <mxGeometry x="101" y="90" width="60" height="30" as="geometry" />
        </mxCell>
        <mxCell id="UZEO_q5DwTr9vSXdgPJz-20" value="Buka Sidabar" style="curved=1;endArrow=classic;html=1;rounded=0;fontSize=10;fontColor=#000000;exitX=1;exitY=0.5;exitDx=0;exitDy=0;" parent="1" source="UZEO_q5DwTr9vSXdgPJz-1" edge="1">
          <mxGeometry x="-0.9266" y="5" width="50" height="50" relative="1" as="geometry">
            <mxPoint x="930" y="-960" as="sourcePoint" />
            <mxPoint x="1130" y="-1070" as="targetPoint" />
            <Array as="points">
              <mxPoint x="980" y="-960" />
              <mxPoint x="840" y="-1130" />
              <mxPoint x="750" y="-1070" />
              <mxPoint x="930" y="-1010" />
              <mxPoint x="1000" y="-1090" />
            </Array>
            <mxPoint as="offset" />
          </mxGeometry>
        </mxCell>
        <mxCell id="UZEO_q5DwTr9vSXdgPJz-21" value="" style="endArrow=classic;html=1;rounded=0;fontSize=10;fontColor=#000000;" parent="1" target="UZEO_q5DwTr9vSXdgPJz-18" edge="1">
          <mxGeometry width="50" height="50" relative="1" as="geometry">
            <mxPoint x="1390" y="-1045" as="sourcePoint" />
            <mxPoint x="1330" y="-1100" as="targetPoint" />
          </mxGeometry>
        </mxCell>
        <mxCell id="UZEO_q5DwTr9vSXdgPJz-22" value="&lt;b&gt;Jika Belum Login:&lt;/b&gt;&lt;br&gt;- Ke halaman login&lt;br&gt;- Text: &quot;Masuk&quot;&lt;br&gt;&lt;br&gt;&lt;b&gt;Jika Sudah Login:&lt;/b&gt;&lt;br&gt;- Ke halaman profil&lt;br&gt;- Text: &quot;Profil&quot;" style="text;html=1;strokeColor=default;fillColor=none;align=left;verticalAlign=middle;whiteSpace=wrap;rounded=0;strokeWidth=1;fontSize=10;fontColor=#000000;" parent="1" vertex="1">
          <mxGeometry x="1390" y="-1087" width="130" height="90" as="geometry" />
        </mxCell>
        <mxCell id="OArU4pEFVUWqRw4boucX-1" style="edgeStyle=orthogonalEdgeStyle;rounded=0;orthogonalLoop=1;jettySize=auto;html=1;exitX=0;exitY=0.5;exitDx=0;exitDy=0;entryX=1;entryY=0.5;entryDx=0;entryDy=0;fontSize=10;fontColor=#000000;" parent="1" source="UZEO_q5DwTr9vSXdgPJz-23" target="UZEO_q5DwTr9vSXdgPJz-19" edge="1">
          <mxGeometry relative="1" as="geometry" />
        </mxCell>
        <mxCell id="UZEO_q5DwTr9vSXdgPJz-23" value="&lt;b&gt;Jika Belum Login:&lt;/b&gt;&lt;br&gt;- Tidak muncul apa-apa&lt;br&gt;&lt;br&gt;&lt;b&gt;Jika Sudah Login:&lt;/b&gt;&lt;br&gt;- Ke halaman kurikulum (list video)" style="text;html=1;strokeColor=default;fillColor=none;align=left;verticalAlign=middle;whiteSpace=wrap;rounded=0;strokeWidth=1;fontSize=10;fontColor=#000000;" parent="1" vertex="1">
          <mxGeometry x="1390" y="-990" width="160" height="90" as="geometry" />
        </mxCell>
      </root>
    </mxGraphModel>
  </diagram>
  <diagram id="gBCkAdJjXBEJs2clmntb" name="Login Page">
    <mxGraphModel dx="868" dy="474" grid="1" gridSize="10" guides="1" tooltips="1" connect="1" arrows="1" fold="1" page="1" pageScale="1" pageWidth="827" pageHeight="1169" math="0" shadow="0">
      <root>
        <mxCell id="0" />
        <mxCell id="1" parent="0" />
        <mxCell id="OsrUh5GkbSi3Nym_H8s_-30" value="User meng-klik tombol &quot;Masuk&quot;" style="edgeStyle=orthogonalEdgeStyle;rounded=0;orthogonalLoop=1;jettySize=auto;html=1;fontSize=10;fontColor=#000000;" parent="1" source="PZ0fq7giwoxXHdpibbuK-1" target="OsrUh5GkbSi3Nym_H8s_-29" edge="1">
          <mxGeometry relative="1" as="geometry" />
        </mxCell>
        <mxCell id="PZ0fq7giwoxXHdpibbuK-1" value="" style="verticalLabelPosition=bottom;verticalAlign=top;html=1;shadow=0;dashed=0;strokeWidth=1;shape=mxgraph.android.phone2;strokeColor=#666666;fontSize=10;fontColor=#333333;fillColor=#f5f5f5;" parent="1" vertex="1">
          <mxGeometry x="310" y="130" width="200" height="390" as="geometry" />
        </mxCell>
        <mxCell id="OsrUh5GkbSi3Nym_H8s_-13" value="email@example.com" style="html=1;shadow=0;dashed=0;shape=mxgraph.bootstrap.rrect;rSize=5;fillColor=none;strokeColor=#999999;align=left;spacing=15;fontSize=14;fontColor=#6C767D;strokeWidth=1;" parent="1" vertex="1">
          <mxGeometry x="330" y="240" width="157" height="30" as="geometry" />
        </mxCell>
        <mxCell id="OsrUh5GkbSi3Nym_H8s_-14" value="Alamat Email" style="fillColor=none;strokeColor=none;align=left;spacing=20;fontSize=14;strokeWidth=1;fontColor=#000000;" parent="1" vertex="1">
          <mxGeometry x="311" y="205" width="220" height="40" as="geometry" />
        </mxCell>
        <mxCell id="OsrUh5GkbSi3Nym_H8s_-16" style="edgeStyle=orthogonalEdgeStyle;rounded=0;orthogonalLoop=1;jettySize=auto;html=1;exitX=0.5;exitY=1;exitDx=0;exitDy=0;entryX=0.491;entryY=-0.007;entryDx=0;entryDy=0;entryPerimeter=0;fontSize=10;fontColor=#000000;" parent="1" source="OsrUh5GkbSi3Nym_H8s_-15" target="PZ0fq7giwoxXHdpibbuK-1" edge="1">
          <mxGeometry relative="1" as="geometry" />
        </mxCell>
        <mxCell id="OsrUh5GkbSi3Nym_H8s_-15" value="Start" style="rounded=1;whiteSpace=wrap;html=1;strokeColor=#82b366;strokeWidth=1;fontSize=10;fillColor=#d5e8d4;" parent="1" vertex="1">
          <mxGeometry x="348.5" y="20" width="120" height="60" as="geometry" />
        </mxCell>
        <mxCell id="OsrUh5GkbSi3Nym_H8s_-18" value="Password" style="fillColor=none;strokeColor=none;align=left;spacing=20;fontSize=14;strokeWidth=1;fontColor=#000000;" parent="1" vertex="1">
          <mxGeometry x="311" y="280" width="220" height="40" as="geometry" />
        </mxCell>
        <mxCell id="OsrUh5GkbSi3Nym_H8s_-20" value="********" style="strokeWidth=1;shadow=0;dashed=0;align=center;html=1;shape=mxgraph.mockup.forms.pwField;strokeColor=#999999;mainText=;align=left;fontColor=#666666;fontSize=17;spacingLeft=3;" parent="1" vertex="1">
          <mxGeometry x="330" y="310" width="150" height="30" as="geometry" />
        </mxCell>
        <mxCell id="OsrUh5GkbSi3Nym_H8s_-21" value="Masuk" style="html=1;shadow=0;dashed=0;shape=mxgraph.bootstrap.rrect;rSize=5;strokeColor=none;strokeWidth=1;fillColor=#33A64C;fontColor=#FFFFFF;whiteSpace=wrap;align=center;verticalAlign=middle;spacingLeft=0;fontStyle=1;fontSize=14;spacing=5;" parent="1" vertex="1">
          <mxGeometry x="330" y="360" width="65" height="30" as="geometry" />
        </mxCell>
        <mxCell id="OsrUh5GkbSi3Nym_H8s_-57" value="" style="edgeStyle=orthogonalEdgeStyle;rounded=0;orthogonalLoop=1;jettySize=auto;html=1;fontSize=10;fontColor=#000000;" parent="1" source="OsrUh5GkbSi3Nym_H8s_-22" target="OsrUh5GkbSi3Nym_H8s_-56" edge="1">
          <mxGeometry relative="1" as="geometry" />
        </mxCell>
        <mxCell id="OsrUh5GkbSi3Nym_H8s_-22" value="Belum Punya akun? Daftar" style="text;html=1;strokeColor=none;fillColor=none;align=center;verticalAlign=middle;whiteSpace=wrap;rounded=0;strokeWidth=1;fontSize=10;fontColor=#000000;" parent="1" vertex="1">
          <mxGeometry x="320" y="390" width="140" height="30" as="geometry" />
        </mxCell>
        <mxCell id="OsrUh5GkbSi3Nym_H8s_-38" value="" style="edgeStyle=orthogonalEdgeStyle;rounded=0;orthogonalLoop=1;jettySize=auto;html=1;fontSize=10;fontColor=#000000;" parent="1" source="OsrUh5GkbSi3Nym_H8s_-29" target="OsrUh5GkbSi3Nym_H8s_-37" edge="1">
          <mxGeometry relative="1" as="geometry" />
        </mxCell>
        <mxCell id="OsrUh5GkbSi3Nym_H8s_-29" value="" style="verticalLabelPosition=bottom;verticalAlign=top;html=1;shadow=0;dashed=0;strokeWidth=1;shape=mxgraph.android.phone2;strokeColor=#666666;fontSize=10;fontColor=#333333;fillColor=#f5f5f5;" parent="1" vertex="1">
          <mxGeometry x="310" y="600" width="200" height="390" as="geometry" />
        </mxCell>
        <mxCell id="OsrUh5GkbSi3Nym_H8s_-31" value="email@example.com" style="html=1;shadow=0;dashed=0;shape=mxgraph.bootstrap.rrect;rSize=5;fillColor=none;strokeColor=#999999;align=left;spacing=15;fontSize=14;fontColor=#6C767D;strokeWidth=1;" parent="1" vertex="1">
          <mxGeometry x="330" y="685" width="157" height="30" as="geometry" />
        </mxCell>
        <mxCell id="OsrUh5GkbSi3Nym_H8s_-32" value="Alamat Email" style="fillColor=none;strokeColor=none;align=left;spacing=20;fontSize=14;strokeWidth=1;fontColor=#000000;" parent="1" vertex="1">
          <mxGeometry x="311" y="650" width="220" height="40" as="geometry" />
        </mxCell>
        <mxCell id="OsrUh5GkbSi3Nym_H8s_-33" value="Password" style="fillColor=none;strokeColor=none;align=left;spacing=20;fontSize=14;strokeWidth=1;fontColor=#000000;" parent="1" vertex="1">
          <mxGeometry x="311" y="725" width="220" height="40" as="geometry" />
        </mxCell>
        <mxCell id="OsrUh5GkbSi3Nym_H8s_-34" value="********" style="strokeWidth=1;shadow=0;dashed=0;align=center;html=1;shape=mxgraph.mockup.forms.pwField;strokeColor=#999999;mainText=;align=left;fontColor=#666666;fontSize=17;spacingLeft=3;" parent="1" vertex="1">
          <mxGeometry x="330" y="755" width="150" height="30" as="geometry" />
        </mxCell>
        <mxCell id="OsrUh5GkbSi3Nym_H8s_-35" value="Loading" style="html=1;shadow=0;dashed=0;shape=mxgraph.bootstrap.rrect;rSize=5;strokeColor=none;strokeWidth=1;fillColor=#33A64C;fontColor=#FFFFFF;whiteSpace=wrap;align=center;verticalAlign=middle;spacingLeft=0;fontStyle=1;fontSize=14;spacing=5;opacity=75;" parent="1" vertex="1">
          <mxGeometry x="330" y="805" width="80" height="30" as="geometry" />
        </mxCell>
        <mxCell id="OsrUh5GkbSi3Nym_H8s_-36" value="Belum Punya akun? Daftar" style="text;html=1;strokeColor=none;fillColor=none;align=center;verticalAlign=middle;whiteSpace=wrap;rounded=0;strokeWidth=1;fontSize=10;fontColor=#000000;" parent="1" vertex="1">
          <mxGeometry x="320" y="835" width="140" height="30" as="geometry" />
        </mxCell>
        <mxCell id="OsrUh5GkbSi3Nym_H8s_-42" value="Ya" style="edgeStyle=orthogonalEdgeStyle;rounded=0;orthogonalLoop=1;jettySize=auto;html=1;fontSize=10;fontColor=#000000;" parent="1" source="OsrUh5GkbSi3Nym_H8s_-37" target="OsrUh5GkbSi3Nym_H8s_-41" edge="1">
          <mxGeometry relative="1" as="geometry" />
        </mxCell>
        <mxCell id="OsrUh5GkbSi3Nym_H8s_-45" value="Tidak" style="edgeStyle=orthogonalEdgeStyle;rounded=0;orthogonalLoop=1;jettySize=auto;html=1;exitX=1;exitY=0.5;exitDx=0;exitDy=0;fontSize=10;fontColor=#000000;entryX=0.501;entryY=1.004;entryDx=0;entryDy=0;entryPerimeter=0;" parent="1" source="OsrUh5GkbSi3Nym_H8s_-37" target="OsrUh5GkbSi3Nym_H8s_-43" edge="1">
          <mxGeometry x="-0.9375" relative="1" as="geometry">
            <mxPoint x="1270" y="1000" as="targetPoint" />
            <mxPoint as="offset" />
          </mxGeometry>
        </mxCell>
        <mxCell id="OsrUh5GkbSi3Nym_H8s_-37" value="Login Berhasil?" style="rhombus;whiteSpace=wrap;html=1;fontSize=10;verticalAlign=middle;fillColor=#fff2cc;strokeColor=#d6b656;shadow=0;dashed=0;strokeWidth=1;" parent="1" vertex="1">
          <mxGeometry x="370" y="1080" width="80" height="80" as="geometry" />
        </mxCell>
        <mxCell id="OsrUh5GkbSi3Nym_H8s_-41" value="Menuju Halaman Kurikulum" style="shape=parallelogram;perimeter=parallelogramPerimeter;whiteSpace=wrap;html=1;fixedSize=1;fontSize=10;fillColor=#e1d5e7;strokeColor=#9673a6;shadow=0;dashed=0;strokeWidth=1;" parent="1" vertex="1">
          <mxGeometry x="350" y="1250" width="120" height="60" as="geometry" />
        </mxCell>
        <mxCell id="OsrUh5GkbSi3Nym_H8s_-43" value="" style="verticalLabelPosition=bottom;verticalAlign=top;html=1;shadow=0;dashed=0;strokeWidth=1;shape=mxgraph.android.phone2;strokeColor=#666666;fontSize=10;fontColor=#333333;fillColor=#f5f5f5;" parent="1" vertex="1">
          <mxGeometry x="1170" y="600" width="200" height="390" as="geometry" />
        </mxCell>
        <mxCell id="OsrUh5GkbSi3Nym_H8s_-46" value="email@example.com" style="html=1;shadow=0;dashed=0;shape=mxgraph.bootstrap.rrect;rSize=5;fillColor=none;strokeColor=#999999;align=left;spacing=15;fontSize=14;fontColor=#6C767D;strokeWidth=1;" parent="1" vertex="1">
          <mxGeometry x="1189" y="721.5" width="157" height="30" as="geometry" />
        </mxCell>
        <mxCell id="OsrUh5GkbSi3Nym_H8s_-47" value="Alamat Email" style="fillColor=none;strokeColor=none;align=left;spacing=20;fontSize=14;strokeWidth=1;fontColor=#000000;" parent="1" vertex="1">
          <mxGeometry x="1170" y="686.5" width="220" height="40" as="geometry" />
        </mxCell>
        <mxCell id="OsrUh5GkbSi3Nym_H8s_-48" value="Password" style="fillColor=none;strokeColor=none;align=left;spacing=20;fontSize=14;strokeWidth=1;fontColor=#000000;" parent="1" vertex="1">
          <mxGeometry x="1170" y="761.5" width="220" height="40" as="geometry" />
        </mxCell>
        <mxCell id="OsrUh5GkbSi3Nym_H8s_-49" value="********" style="strokeWidth=1;shadow=0;dashed=0;align=center;html=1;shape=mxgraph.mockup.forms.pwField;strokeColor=#999999;mainText=;align=left;fontColor=#666666;fontSize=17;spacingLeft=3;" parent="1" vertex="1">
          <mxGeometry x="1189" y="791.5" width="150" height="30" as="geometry" />
        </mxCell>
        <mxCell id="OsrUh5GkbSi3Nym_H8s_-50" value="Masuk" style="html=1;shadow=0;dashed=0;shape=mxgraph.bootstrap.rrect;rSize=5;strokeColor=none;strokeWidth=1;fillColor=#33A64C;fontColor=#FFFFFF;whiteSpace=wrap;align=center;verticalAlign=middle;spacingLeft=0;fontStyle=1;fontSize=14;spacing=5;" parent="1" vertex="1">
          <mxGeometry x="1189" y="841.5" width="65" height="30" as="geometry" />
        </mxCell>
        <mxCell id="OsrUh5GkbSi3Nym_H8s_-51" value="Belum Punya akun? Daftar" style="text;html=1;strokeColor=none;fillColor=none;align=center;verticalAlign=middle;whiteSpace=wrap;rounded=0;strokeWidth=1;fontSize=10;fontColor=#000000;" parent="1" vertex="1">
          <mxGeometry x="1179" y="871.5" width="140" height="30" as="geometry" />
        </mxCell>
        <mxCell id="OsrUh5GkbSi3Nym_H8s_-52" value="Email atau password Salah" style="html=1;shadow=0;dashed=0;shape=mxgraph.bootstrap.rrect;rSize=5;strokeColor=#F4C5CB;strokeWidth=1;fillColor=#F8D6DA;fontColor=#711623;whiteSpace=wrap;align=left;verticalAlign=middle;spacingLeft=10;fontSize=10;opacity=75;" parent="1" vertex="1">
          <mxGeometry x="1189" y="646.5" width="140" height="40" as="geometry" />
        </mxCell>
        <mxCell id="OsrUh5GkbSi3Nym_H8s_-54" value="" style="endArrow=classic;html=1;rounded=0;fontSize=10;fontColor=#000000;exitX=-0.013;exitY=0.481;exitDx=0;exitDy=0;exitPerimeter=0;entryX=0.996;entryY=0.481;entryDx=0;entryDy=0;entryPerimeter=0;" parent="1" source="OsrUh5GkbSi3Nym_H8s_-43" target="OsrUh5GkbSi3Nym_H8s_-29" edge="1">
          <mxGeometry width="50" height="50" relative="1" as="geometry">
            <mxPoint x="1110" y="780" as="sourcePoint" />
            <mxPoint x="1160" y="730" as="targetPoint" />
          </mxGeometry>
        </mxCell>
        <mxCell id="OsrUh5GkbSi3Nym_H8s_-56" value="Menuju Halaman&lt;br&gt;Register" style="shape=parallelogram;perimeter=parallelogramPerimeter;whiteSpace=wrap;html=1;fixedSize=1;strokeColor=#9673a6;strokeWidth=1;fontSize=10;opacity=75;fillColor=#e1d5e7;" parent="1" vertex="1">
          <mxGeometry x="110" y="375" width="120" height="60" as="geometry" />
        </mxCell>
        <mxCell id="OsrUh5GkbSi3Nym_H8s_-58" value="" style="endArrow=classic;html=1;rounded=0;fontSize=10;fontColor=#000000;exitX=1;exitY=0.467;exitDx=0;exitDy=0;exitPerimeter=0;" parent="1" source="OsrUh5GkbSi3Nym_H8s_-21" edge="1">
          <mxGeometry width="50" height="50" relative="1" as="geometry">
            <mxPoint x="550" y="260" as="sourcePoint" />
            <mxPoint x="550" y="374" as="targetPoint" />
          </mxGeometry>
        </mxCell>
        <mxCell id="OsrUh5GkbSi3Nym_H8s_-59" value="&lt;b&gt;API&lt;/b&gt;&lt;br&gt;path: /login&lt;br&gt;method: POST&lt;br&gt;&lt;br&gt;body:&lt;br&gt;email: string&lt;br&gt;password: string" style="rounded=0;whiteSpace=wrap;html=1;strokeColor=default;strokeWidth=1;fontSize=10;fontColor=#000000;opacity=75;align=left;verticalAlign=top;" parent="1" vertex="1">
          <mxGeometry x="550" y="345" width="120" height="95" as="geometry" />
        </mxCell>
        <mxCell id="OsrUh5GkbSi3Nym_H8s_-60" value="" style="endArrow=classic;html=1;rounded=0;fontSize=10;fontColor=#000000;entryX=-0.016;entryY=0.486;entryDx=0;entryDy=0;entryPerimeter=0;" parent="1" target="OsrUh5GkbSi3Nym_H8s_-13" edge="1">
          <mxGeometry width="50" height="50" relative="1" as="geometry">
            <mxPoint x="270" y="255" as="sourcePoint" />
            <mxPoint x="560" y="255" as="targetPoint" />
          </mxGeometry>
        </mxCell>
        <mxCell id="OsrUh5GkbSi3Nym_H8s_-61" value="Type: email" style="text;html=1;strokeColor=default;fillColor=none;align=center;verticalAlign=middle;whiteSpace=wrap;rounded=0;strokeWidth=1;fontSize=10;fontColor=#000000;opacity=75;" parent="1" vertex="1">
          <mxGeometry x="210" y="240" width="60" height="30" as="geometry" />
        </mxCell>
        <mxCell id="OsrUh5GkbSi3Nym_H8s_-62" value="" style="endArrow=classic;html=1;rounded=0;fontSize=10;fontColor=#000000;entryX=-0.016;entryY=0.486;entryDx=0;entryDy=0;entryPerimeter=0;" parent="1" edge="1">
          <mxGeometry width="50" height="50" relative="1" as="geometry">
            <mxPoint x="272.51" y="325.08" as="sourcePoint" />
            <mxPoint x="329.99800000000005" y="324.66" as="targetPoint" />
          </mxGeometry>
        </mxCell>
        <mxCell id="OsrUh5GkbSi3Nym_H8s_-63" value="Type: password&lt;br&gt;&lt;div style=&quot;&quot;&gt;&lt;span style=&quot;background-color: initial;&quot;&gt;Terdapat toggle password visibility&lt;/span&gt;&lt;/div&gt;" style="text;html=1;strokeColor=default;fillColor=none;align=left;verticalAlign=middle;whiteSpace=wrap;rounded=0;strokeWidth=1;fontSize=10;fontColor=#000000;opacity=75;" parent="1" vertex="1">
          <mxGeometry x="110" y="310" width="160" height="30" as="geometry" />
        </mxCell>
      </root>
    </mxGraphModel>
  </diagram>
  <diagram id="K0XTheHdiBssspySRXnW" name="Page-4">
    <mxGraphModel dx="868" dy="474" grid="1" gridSize="10" guides="1" tooltips="1" connect="1" arrows="1" fold="1" page="1" pageScale="1" pageWidth="827" pageHeight="1169" math="0" shadow="0">
      <root>
        <mxCell id="0" />
        <mxCell id="1" parent="0" />
      </root>
    </mxGraphModel>
  </diagram>
</mxfile>
